<?xml version="1.0" encoding="utf-8"?>
<!-- Generator: Adobe Illustrator 26.0.0, SVG Export Plug-In . SVG Version: 6.00 Build 0)  -->
<svg version="1.1" id="Capa_1" xmlns="http://www.w3.org/2000/svg" xmlns:xlink="http://www.w3.org/1999/xlink" x="0px" y="0px"
	 viewBox="0 0 60 30" style="enable-background:new 0 0 60 30;" xml:space="preserve">
<style type="text/css">
	.st0{fill:#1B1918;}
	.st1{fill:#009EE0;}
</style>
<g>
	<g>
		<g>
			<g>
				<g>
					<path class="st0" d="M17.869,14.846c-0.505-0.147-0.911-0.337-1.217-0.572l0.538-1.193c0.293,0.215,0.642,0.388,1.046,0.518
						c0.404,0.13,0.808,0.195,1.212,0.195c0.45,0,0.782-0.067,0.997-0.2c0.215-0.134,0.323-0.311,0.323-0.533
						c0-0.163-0.063-0.298-0.191-0.406c-0.127-0.108-0.29-0.194-0.489-0.259c-0.199-0.065-0.468-0.137-0.807-0.215
						c-0.522-0.124-0.948-0.248-1.281-0.371c-0.332-0.124-0.618-0.323-0.855-0.596c-0.238-0.274-0.357-0.639-0.357-1.095
						c0-0.398,0.107-0.758,0.323-1.08c0.215-0.323,0.539-0.578,0.973-0.768c0.433-0.189,0.963-0.284,1.589-0.284
						c0.437,0,0.864,0.052,1.281,0.156c0.417,0.104,0.782,0.254,1.095,0.45l-0.489,1.202c-0.632-0.358-1.265-0.538-1.897-0.538
						c-0.443,0-0.771,0.072-0.982,0.215c-0.212,0.143-0.318,0.332-0.318,0.567c0,0.235,0.122,0.409,0.366,0.523
						c0.244,0.114,0.618,0.227,1.119,0.337c0.521,0.124,0.948,0.248,1.281,0.371c0.332,0.124,0.618,0.319,0.855,0.587
						s0.357,0.629,0.357,1.085c0,0.391-0.109,0.748-0.328,1.071c-0.218,0.323-0.546,0.579-0.982,0.768
						c-0.437,0.189-0.968,0.284-1.594,0.284C18.897,15.066,18.374,14.993,17.869,14.846z"/>
					<path class="st0" d="M24.184,14.255c-0.544-0.541-0.816-1.313-0.816-2.317V8.105h1.584v3.774c0,1.225,0.508,1.838,1.525,1.838
						c0.495,0,0.873-0.148,1.134-0.445c0.261-0.296,0.391-0.761,0.391-1.393V8.105h1.565v3.832c0,1.004-0.272,1.776-0.816,2.317
						c-0.544,0.541-1.305,0.812-2.283,0.812S24.728,14.796,24.184,14.255z"/>
					<path class="st0" d="M35.49,14.949l-1.32-1.906h-0.078h-1.378v1.906H31.13V8.105h2.962c0.606,0,1.133,0.101,1.579,0.303
						c0.446,0.202,0.79,0.489,1.032,0.86c0.241,0.372,0.362,0.812,0.362,1.32c0,0.508-0.122,0.947-0.367,1.315
						c-0.244,0.368-0.591,0.65-1.041,0.846l1.535,2.2H35.49z M35.09,9.704c-0.248-0.205-0.61-0.308-1.085-0.308h-1.29v2.385h1.29
						c0.476,0,0.838-0.104,1.085-0.313c0.248-0.209,0.371-0.502,0.371-0.88C35.461,10.204,35.337,9.909,35.09,9.704z"/>
				</g>
				<g>
					<path class="st0" d="M19.878,20.73h-2.606l-0.539,1.226h-0.721l2.221-4.904h0.694l2.228,4.904h-0.736L19.878,20.73z
						 M19.633,20.169l-1.058-2.403l-1.058,2.403H19.633z"/>
					<path class="st0" d="M21.881,17.052h0.701v4.294h2.655v0.609h-3.356V17.052z"/>
					<path class="st0" d="M26.463,21.452c-0.364-0.374-0.546-0.911-0.546-1.611v-2.788h0.701v2.76c0,1.051,0.46,1.576,1.38,1.576
						c0.448,0,0.792-0.13,1.03-0.389c0.238-0.259,0.357-0.655,0.357-1.187v-2.76h0.679v2.788c0,0.705-0.182,1.243-0.546,1.615
						c-0.364,0.371-0.873,0.557-1.527,0.557C27.336,22.012,26.827,21.825,26.463,21.452z"/>
					<path class="st0" d="M36.047,21.956l-0.007-3.573l-1.772,2.977h-0.322l-1.773-2.956v3.552H31.5v-4.904h0.574l2.046,3.447
						l2.018-3.447h0.575l0.007,4.904H36.047z"/>
					<path class="st0" d="M38.19,17.052h0.701v4.904H38.19V17.052z"/>
					<path class="st0" d="M44.579,17.052v4.904h-0.575l-2.942-3.657v3.657h-0.701v-4.904h0.574l2.942,3.657v-3.657H44.579z"/>
					<path class="st0" d="M46.051,17.052h0.701v4.904h-0.701V17.052z"/>
					<path class="st0" d="M49.098,21.686c-0.397-0.217-0.709-0.517-0.935-0.9c-0.227-0.383-0.34-0.81-0.34-1.282
						c0-0.472,0.113-0.899,0.34-1.282c0.226-0.383,0.538-0.683,0.935-0.9c0.397-0.217,0.843-0.326,1.338-0.326
						c0.49,0,0.934,0.109,1.331,0.326c0.397,0.217,0.708,0.516,0.932,0.897c0.224,0.381,0.336,0.809,0.336,1.285
						c0,0.476-0.112,0.905-0.336,1.285c-0.224,0.381-0.535,0.68-0.932,0.897s-0.841,0.326-1.331,0.326
						C49.941,22.012,49.495,21.903,49.098,21.686z M51.407,21.143c0.287-0.164,0.514-0.389,0.679-0.676
						c0.166-0.287,0.249-0.608,0.249-0.963c0-0.355-0.083-0.676-0.249-0.963c-0.166-0.287-0.392-0.513-0.679-0.676
						c-0.287-0.163-0.611-0.245-0.97-0.245c-0.36,0-0.686,0.082-0.977,0.245c-0.292,0.164-0.521,0.389-0.687,0.676
						c-0.166,0.287-0.249,0.608-0.249,0.963c0,0.355,0.083,0.676,0.249,0.963c0.166,0.287,0.395,0.513,0.687,0.676
						c0.292,0.164,0.618,0.245,0.977,0.245C50.796,21.389,51.119,21.307,51.407,21.143z"/>
					<path class="st0" d="M54.468,21.84c-0.343-0.114-0.613-0.263-0.809-0.445l0.259-0.546c0.187,0.168,0.426,0.305,0.718,0.41
						c0.292,0.105,0.592,0.158,0.9,0.158c0.406,0,0.71-0.069,0.911-0.207c0.201-0.138,0.301-0.321,0.301-0.55
						c0-0.168-0.055-0.305-0.165-0.41c-0.11-0.105-0.245-0.186-0.406-0.242c-0.161-0.056-0.389-0.119-0.683-0.189
						c-0.369-0.089-0.667-0.177-0.893-0.266c-0.227-0.089-0.421-0.225-0.582-0.41c-0.161-0.184-0.242-0.433-0.242-0.746
						c0-0.262,0.069-0.497,0.207-0.708c0.138-0.21,0.347-0.378,0.627-0.504c0.28-0.126,0.628-0.189,1.044-0.189
						c0.289,0,0.575,0.037,0.855,0.112c0.28,0.075,0.521,0.182,0.722,0.322L57,17.991c-0.206-0.131-0.425-0.23-0.658-0.298
						c-0.234-0.068-0.462-0.102-0.687-0.102c-0.397,0-0.695,0.073-0.893,0.217c-0.199,0.145-0.298,0.332-0.298,0.56
						c0,0.168,0.056,0.305,0.168,0.41c0.112,0.105,0.251,0.187,0.417,0.245c0.166,0.058,0.391,0.12,0.676,0.186
						c0.369,0.089,0.665,0.177,0.89,0.266c0.224,0.089,0.417,0.224,0.578,0.406c0.161,0.182,0.242,0.427,0.242,0.736
						c0,0.257-0.07,0.492-0.21,0.704c-0.14,0.213-0.353,0.381-0.638,0.504c-0.285,0.124-0.635,0.186-1.051,0.186
						C55.167,22.012,54.811,21.955,54.468,21.84z"/>
				</g>
			</g>
		</g>
	</g>
	<g>
		<g>
			<path class="st1" d="M2.565,17.392v3.916h9.8v-6.938H3.827V9.954h6.441c0.491,0,0.916,0.338,1.03,0.814l0.437,1.84h0.63V8.692
				h-9.8v6.938h0.669c0.029-0.384,0.354-0.688,0.744-0.688c0.392,0,0.715,0.304,0.744,0.688h6.382v4.416H4.663
				c-0.49,0-0.916-0.336-1.029-0.814l-0.438-1.84H2.565z"/>
			<path class="st1" d="M3.979,16.144c0.251,0,0.455-0.205,0.455-0.455c0-0.02-0.001-0.039-0.004-0.058
				c-0.028-0.224-0.219-0.396-0.45-0.396c-0.231,0-0.422,0.172-0.45,0.396c-0.003,0.019-0.004,0.038-0.004,0.058
				C3.524,15.939,3.729,16.144,3.979,16.144z"/>
		</g>
	</g>
</g>
</svg>
